<?xml version="1.0" encoding="utf-8"?>
<svg xmlns="http://www.w3.org/2000/svg" viewBox="0 0 2000 458" fill-rule="evenodd" clip-rule="evenodd" stroke-linejoin="round" stroke-miterlimit="2">
  <path d="M764.647 281.37v73.222l-226.723.22-.44-251.866h73.221v178.645l153.942-.221zm285.609-.22v73.221l-252.306.442-.441-252.087 252.085-.441v73.222l-178.864.22v16.32l179.085-.22v73.156l-179.085.22v16.321l179.526-.375zm357.728-178.976l.22 252.087h-73.221V247.736l-57.343 107.407h-64.4l-57.783-107.186v106.745h-73.001V102.616h78.074l84.91 157.956 84.47-158.133 78.074-.265zm296.46 126.088v.22c0 69.085-56.848 125.934-125.933 125.934h-23.047c-69.146 0-126.043-56.897-126.043-126.044 0-69.02 56.692-125.862 125.712-126.043h23.334c69.093 0 125.953 56.84 125.977 125.933zm-73.001 0c-.084-29.007-23.925-52.848-52.932-52.932h-22.716c-29.037 0-52.932 23.895-52.932 52.932 0 29.037 23.895 52.932 52.932 52.932h22.496c29.079.013 53.044-23.853 53.152-52.932zm368.49 126.286h-83.146L1797.69 207l.22 147.767h-73.22l-.442-252.086h83.146l119.096 147.988-.441-147.988h73.222l.661 251.866zM228.504.001C103.116.001-.064 103.182-.064 228.57c0 125.388 103.18 228.568 228.568 228.568 125.387 0 228.567-103.18 228.567-228.568C456.962 103.222 353.851.11 228.504 0zm119.89 239.207a16.854 16.854 0 0 1-4.888 2.875 25.943 25.943 0 0 1-6.325 1.725c-4.962.767-10.02.67-14.95-.288a97.322 97.322 0 0 1-31.626-12.65 189.903 189.903 0 0 1-28.463-21.563 409.48 409.48 0 0 1-12.938-12.938c-4.025-4.313-8.338-9.2-12.075-14.088-1.541-2.064-4.465-2.573-6.613-1.15-2.326 1.45-3.096 4.525-1.725 6.9 3.45 5.463 7.188 10.638 10.925 15.813 3.738 5.175 8.05 10.063 12.363 14.95a192.674 192.674 0 0 0 28.75 26.451 116.593 116.593 0 0 0 36.227 18.4 102.307 102.307 0 0 0 13.512 2.588 3.35 3.35 0 0 1 3.189 3.333c0 .135-.009.27-.026.405a2.19 2.19 0 0 1-.575 1.437 176.361 176.361 0 0 1-27.026 34.789c-31.913 31.913-72.739 49.451-109.827 49.451a100.129 100.129 0 0 1-44.851-9.775l-3.163-1.438a3.65 3.65 0 0 0-3.45 0l-2.875 2.013a29.221 29.221 0 0 1-15.813 4.888 16.443 16.443 0 0 1-12.65-4.888c-6.038-6.038-6.325-17.538-.288-27.6l1.726-3.163a3.65 3.65 0 0 0 0-3.45l-1.726-3.163c-15.812-29.9-14.662-69.29 1.438-105.803a3.455 3.455 0 0 1 4.6-1.725c.825.25 1.475.9 1.725 1.725a132.023 132.023 0 0 0 12.075 22.713 178.992 178.992 0 0 0 25.014 30.189 154.415 154.415 0 0 0 14.375 12.937 306.813 306.813 0 0 0 15.238 11.788 4.926 4.926 0 0 0 3.018 1.035c2.697 0 4.917-2.22 4.917-4.916 0-1.515-.702-2.95-1.898-3.881-4.6-4.026-9.2-8.338-13.512-12.65-4.313-4.313-8.338-8.914-12.363-13.514a185.283 185.283 0 0 1-20.126-29.613 92.466 92.466 0 0 1-10.637-32.2 43.514 43.514 0 0 1 0-14.951 45.55 45.55 0 0 1 2.012-5.75l1.15-1.725a136.423 136.423 0 0 1 10.638-11.5c46.863-47.152 112.127-62.677 158.128-37.952l3.45 1.725a3.65 3.65 0 0 0 3.45 0l3.163-2.012c10.638-6.9 22.713-7.188 29.326-.575 6.612 6.612 6.325 19.263-1.15 30.188l-2.3 2.875a3.711 3.711 0 0 0-.288 3.45l1.725 3.45c11.788 25.013 12.363 56.064 2.013 86.828z" fill="#00a849" fill-rule="nonzero"/>
</svg>